<?xml version="1.0" encoding="utf-8"?>
<!-- Generator: Adobe Illustrator 26.0.0, SVG Export Plug-In . SVG Version: 6.00 Build 0)  -->
<svg version="1.1" id="Layer_1" xmlns="http://www.w3.org/2000/svg" xmlns:xlink="http://www.w3.org/1999/xlink" x="0px" y="0px"
	 width="16px" height="16px" viewBox="0 0 16 16" enable-background="new 0 0 16 16" xml:space="preserve">
<path fill="#70C9E8" d="M8,0.459c-4.166,0-7.543,3.377-7.543,7.543c0,1.524,0.453,2.946,1.232,4.132l-0.972,3.29l3.418-0.947
	c1.13,0.677,2.452,1.065,3.865,1.065c4.166,0,7.543-3.377,7.543-7.543C15.543,3.836,12.166,0.459,8,0.459z M12.135,10.482
	c0,0.003,0,0.006,0,0.009c-0.062,0.416-0.304,0.785-0.649,1.031c-0.13,0.096-0.292,0.186-0.484,0.261
	c-0.419,0.158-0.785,0.155-0.984,0.137c-0.487-0.059-1.214-0.202-2.015-0.587c-0.866-0.416-1.412-0.916-1.853-1.322
	C5.759,9.654,5.182,9.113,4.651,8.241C4.338,7.729,4.13,7.245,3.987,6.838C3.835,6.404,3.81,5.932,3.937,5.491
	c0.009-0.031,0.019-0.059,0.028-0.09C4.08,5.053,4.254,4.789,4.4,4.612c0.121-0.149,0.313-0.326,0.577-0.363
	C5.07,4.237,5.198,4.237,5.34,4.24c0.05,0,0.096,0,0.14,0.003C5.607,4.249,5.728,4.296,5.821,4.38c0,0,0.025,0.022,0.047,0.043
	c0.127,0.13,0.456,0.978,0.621,1.415c0.096,0.264,0.115,0.553,0.028,0.819c0,0-0.003,0.003-0.003,0.006
	C6.374,7.096,6.06,7.329,5.946,7.406c0.23,0.419,0.639,1.062,1.338,1.661c0.584,0.503,1.161,0.801,1.589,0.978
	c0.09,0.037,0.192,0.012,0.258-0.062l0.826-0.931c0.05-0.059,0.133-0.075,0.202-0.043c0.608,0.279,1.22,0.559,1.828,0.838
	c0.09,0.04,0.149,0.127,0.158,0.227C12.154,10.188,12.157,10.324,12.135,10.482z"/>
</svg>
